# xmcd CD database file
#
# Track frame offsets:
#	150
#	40345
#	75861
#	107196
#	129896
#	176891
#	198941
#	221346
#	241927
#	277506
#
# Disc length: 3964 seconds
#
# Revision: 0
# Processed by: cddbd v1.4PL0 Copyright (c) Steve Scherf et al.
# Submitted via: CDex 1.50
#
DISCID=780f7a0a
DTITLE=Steve Altenberg - Impressions Of Summer
DYEAR=1998
DGENRE=Jazz
TTITLE0=Harpy
TTITLE1=My Foolish Heart
TTITLE2=Bud Powell
TTITLE3=It Don't Mean a Thing
TTITLE4=In Your Own Sweet Way
TTITLE5=Lonely Woman
TTITLE6=Little JJ
TTITLE7=Audrey
TTITLE8=Giant Pets
TTITLE9=Impressions of Summer
EXTD=YEAR: 1998
EXTT0=
EXTT1=
EXTT2=
EXTT3=
EXTT4=
EXTT5=
EXTT6=
EXTT7=
EXTT8=
EXTT9=
PLAYORDER=
